<svg width="6" height="6" viewBox="0 0 6 6" fill="none" xmlns="http://www.w3.org/2000/svg">
<path d="M3.00001 0C3.09947 0 3.19485 0.0395088 3.26518 0.109835C3.3355 0.180161 3.37501 0.275544 3.37501 0.375V2.3505L5.08576 1.36275C5.12843 1.33774 5.17562 1.32141 5.22462 1.31471C5.27362 1.30801 5.32346 1.31107 5.37127 1.32371C5.41908 1.33635 5.46392 1.35833 5.50321 1.38837C5.54249 1.41841 5.57545 1.45592 5.60017 1.49875C5.6249 1.54158 5.64091 1.58888 5.64729 1.63792C5.65366 1.68696 5.65027 1.73678 5.63732 1.78451C5.62436 1.83224 5.60209 1.87693 5.57179 1.91602C5.54149 1.9551 5.50376 1.98781 5.46076 2.01225L3.75001 3L5.46076 3.98775C5.50376 4.01219 5.54149 4.0449 5.57179 4.08398C5.60209 4.12307 5.62436 4.16776 5.63732 4.21549C5.65027 4.26322 5.65366 4.31304 5.64729 4.36208C5.64091 4.41112 5.6249 4.45842 5.60017 4.50125C5.57545 4.54408 5.54249 4.58159 5.50321 4.61163C5.46392 4.64167 5.41908 4.66365 5.37127 4.67629C5.32346 4.68893 5.27362 4.69199 5.22462 4.68529C5.17562 4.67859 5.12843 4.66226 5.08576 4.63725L3.37501 3.6495V5.625C3.37501 5.72446 3.3355 5.81984 3.26518 5.89016C3.19485 5.96049 3.09947 6 3.00001 6C2.90056 6 2.80517 5.96049 2.73485 5.89016C2.66452 5.81984 2.62501 5.72446 2.62501 5.625V3.6495L0.914264 4.63725C0.8716 4.66226 0.82441 4.67859 0.77541 4.68529C0.726411 4.69199 0.676571 4.68893 0.628759 4.67629C0.580946 4.66365 0.536107 4.64167 0.496821 4.61163C0.457536 4.58159 0.42458 4.54408 0.399852 4.50125C0.375124 4.45842 0.359112 4.41112 0.352738 4.36208C0.346363 4.31304 0.349752 4.26322 0.36271 4.21549C0.375668 4.16776 0.397938 4.12307 0.428238 4.08398C0.458539 4.0449 0.496271 4.01219 0.539264 3.98775L2.25001 3L0.539264 2.01225C0.453836 1.96217 0.391685 1.88033 0.366374 1.78459C0.341063 1.68886 0.354647 1.587 0.404161 1.50124C0.453674 1.41548 0.535099 1.35279 0.630664 1.32684C0.72623 1.3009 0.828179 1.31381 0.914264 1.36275L2.62501 2.3505V0.375C2.62501 0.275544 2.66452 0.180161 2.73485 0.109835C2.80517 0.0395088 2.90056 0 3.00001 0V0Z" fill="#CF1322"/>
</svg>
